<?xml version="1.0" standalone="no"?>
<!DOCTYPE svg PUBLIC "-//W3C//DTD SVG 20010904//EN"
 "http://www.w3.org/TR/2001/REC-SVG-20010904/DTD/svg10.dtd">
<svg version="1.0" xmlns="http://www.w3.org/2000/svg"
 width="311.000000pt" height="311.000000pt" viewBox="0 0 311.000000 311.000000"
 preserveAspectRatio="xMidYMid meet">
<metadata>
Created by potrace 1.14, written by Peter Selinger 2001-2017
</metadata>
<g transform="translate(0.000000,311.000000) scale(0.100000,-0.100000)"
fill="#000000" stroke="none">
<path d="M946 2643 c-17 -50 -11 -77 11 -48 12 17 13 17 13 2 0 -9 7 -17 16
-17 11 0 15 6 11 20 -3 13 2 26 16 36 21 16 21 16 -11 10 -29 -5 -32 -4 -22
13 7 14 6 20 -4 24 -10 4 -19 -8 -30 -40z"/>
<path d="M807 2653 c-13 -12 -7 -22 11 -17 9 2 7 -1 -6 -7 -33 -18 -24 -44 15
-44 26 0 33 5 36 24 3 14 3 31 0 38 -5 13 -45 18 -56 6z"/>
<path d="M638 2634 c-3 -3 0 -25 6 -50 11 -45 30 -56 32 -19 2 37 6 40 18 13
17 -40 40 -22 25 20 -12 34 -27 40 -47 20 -9 -9 -12 -8 -12 5 0 17 -11 22 -22
11z"/>
<path d="M1086 2603 c-15 -24 -20 -42 -15 -48 7 -6 13 -5 18 3 6 10 10 9 14
-7 7 -29 27 -27 27 3 0 16 8 26 23 31 21 8 21 8 -5 12 -24 4 -27 7 -18 24 20
37 -18 21 -44 -18z"/>
<path d="M522 2561 c-36 -34 -40 -44 -14 -39 11 2 25 -9 39 -32 19 -30 23 -32
29 -17 4 12 -1 29 -14 46 -14 20 -17 32 -10 39 6 6 9 15 7 21 -2 6 -19 -2 -37
-18z"/>
<path d="M1223 2526 c4 -9 0 -12 -13 -9 -26 7 -32 -11 -11 -36 23 -26 43 -27
66 -1 17 19 17 21 0 40 -21 23 -50 27 -42 6z"/>
<path d="M1313 2425 c-33 -14 -41 -29 -24 -40 5 -3 13 0 17 6 3 6 19 9 35 5
16 -3 29 -1 29 4 0 6 -4 10 -9 10 -5 0 -11 6 -13 14 -3 12 -8 13 -35 1z"/>
<path d="M382 2340 c-10 -22 -10 -34 -2 -50 14 -27 48 -26 60 3 5 12 9 16 9 9
1 -7 -4 -22 -9 -33 -12 -21 -1 -26 18 -7 21 21 14 56 -15 76 -46 31 -48 32
-61 2z m44 -38 c-9 -9 -37 8 -31 18 5 8 11 7 21 -1 8 -6 12 -14 10 -17z"/>
<path d="M340 2211 c0 -5 -2 -16 -6 -24 -7 -19 52 -45 68 -29 8 8 4 14 -15 21
-15 6 -27 17 -27 26 0 8 -4 15 -10 15 -5 0 -10 -4 -10 -9z"/>
<path d="M866 2193 c-5 -19 -26 -132 -31 -173 -2 -14 -10 -65 -19 -115 -8 -49
-18 -108 -21 -130 -36 -230 -64 -397 -69 -413 -3 -9 -7 -36 -10 -59 l-5 -43
134 0 c74 0 136 4 139 8 2 4 7 32 11 62 3 30 10 73 15 95 5 22 11 60 15 85 3
25 8 52 10 60 2 8 6 33 10 55 9 62 16 99 19 102 1 1 34 -59 74 -135 39 -76 93
-180 121 -232 l49 -95 114 -3 114 -3 68 413 c38 227 70 420 71 430 2 9 7 37
10 62 l7 46 -135 0 -135 0 -6 -27 c-11 -54 -67 -406 -69 -431 -1 -21 -12 -3
-95 158 -43 85 -96 188 -117 228 l-37 72 -113 0 c-100 0 -114 -2 -119 -17z"/>
<path d="M330 2055 c0 -18 7 -28 27 -36 38 -14 53 -5 50 31 -2 28 -5 30 -39
30 -34 0 -38 -3 -38 -25z m60 -15 c0 -5 -2 -10 -4 -10 -3 0 -8 5 -11 10 -3 6
-1 10 4 10 6 0 11 -4 11 -10z"/>
<path d="M403 1943 c-7 -3 -13 -14 -14 -26 -1 -20 -2 -20 -9 3 -7 23 -8 23
-15 6 -10 -24 6 -51 31 -51 14 0 18 6 17 25 l-3 25 11 -25 c8 -19 12 -22 19
-10 15 23 -12 62 -37 53z"/>
<path d="M1815 1845 c-4 -27 -8 -57 -10 -65 -1 -8 -6 -32 -9 -54 -3 -21 -9
-42 -12 -47 -3 -5 7 -9 23 -9 15 -1 81 -1 146 -2 64 0 117 -1 117 -2 0 -1 -13
-81 -29 -177 -17 -96 -33 -192 -36 -214 -3 -23 -7 -50 -9 -62 -3 -11 -7 -36
-10 -54 -3 -19 -8 -44 -10 -55 -2 -12 -7 -39 -10 -60 -3 -22 -9 -56 -12 -76
l-6 -38 135 0 c151 0 140 -5 152 75 3 23 7 50 9 60 4 20 18 106 71 430 15 88
29 163 31 167 3 4 66 7 140 7 74 -1 137 1 140 3 3 4 28 139 36 198 l3 25 -422
0 -421 0 -7 -50z"/>
<path d="M443 1806 c-24 -11 -29 -21 -14 -30 11 -7 71 22 71 35 0 12 -29 10
-57 -5z"/>
<path d="M395 1770 c3 -5 10 -10 16 -10 5 0 9 5 9 10 0 6 -7 10 -16 10 -8 0
-12 -4 -9 -10z"/>
<path d="M505 1717 c-26 -24 -34 -36 -26 -41 7 -5 21 0 31 9 18 17 19 16 13
-19 -3 -20 -2 -36 3 -36 5 0 27 14 47 31 27 22 35 35 28 42 -7 7 -17 5 -30 -7
-20 -18 -20 -18 -14 18 7 45 -4 46 -52 3z"/>
<path d="M2450 1328 c0 -7 -3 -30 -6 -50 -7 -42 6 -50 38 -21 17 15 18 15 18
-10 0 -36 16 -34 56 9 39 41 36 68 -3 32 l-26 -23 7 28 c8 35 -17 37 -45 5
l-19 -23 6 33 c5 25 3 32 -10 32 -9 0 -16 -6 -16 -12z"/>
<path d="M2628 1199 c-10 -5 -18 -16 -18 -24 0 -19 30 -46 42 -39 7 5 4 12 -7
21 -11 7 -14 13 -8 13 6 0 16 -7 24 -16 12 -14 14 -14 26 2 11 15 10 21 -4 36
-18 20 -30 22 -55 7z"/>
<path d="M2733 1092 c-24 -9 -43 -20 -43 -25 0 -4 11 -19 25 -32 21 -22 28
-23 49 -14 20 10 23 15 16 35 -7 17 -5 23 7 26 14 3 14 5 2 14 -10 9 -25 7
-56 -4z m19 -37 c0 -5 -5 -11 -11 -13 -6 -2 -11 4 -11 13 0 9 5 15 11 13 6 -2
11 -8 11 -13z"/>
<path d="M2750 831 c0 -40 14 -59 49 -66 23 -4 51 27 51 57 0 18 -18 29 -72
42 -27 6 -28 5 -28 -33z m73 -28 c-10 -25 -53 -6 -53 23 0 9 7 10 29 1 17 -6
27 -16 24 -24z"/>
<path d="M1927 730 c7 -27 15 -31 52 -24 38 8 36 29 -2 28 -15 -1 -27 3 -27 7
0 5 -6 9 -14 9 -9 0 -12 -7 -9 -20z"/>
<path d="M2712 698 c-7 -7 -12 -23 -12 -37 0 -13 3 -21 7 -18 3 4 12 -1 18
-10 11 -15 15 -15 29 -4 28 23 15 81 -19 81 -6 0 -16 -5 -23 -12z m15 -30 c-3
-8 -6 -5 -6 6 -1 11 2 17 5 13 3 -3 4 -12 1 -19z"/>
<path d="M2002 635 c-31 -22 -14 -55 29 -55 33 0 48 23 32 49 -14 22 -34 24
-61 6z m48 -16 c0 -14 -17 -10 -23 5 -4 10 -1 13 9 9 7 -3 14 -9 14 -14z"/>
<path d="M2623 579 c-8 -8 -7 -20 0 -42 15 -41 14 -40 26 -33 7 5 7 15 0 33
-9 26 -9 26 8 11 10 -8 24 -13 32 -10 9 3 5 11 -14 28 -32 27 -37 28 -52 13z"/>
<path d="M2106 529 c-18 -26 -13 -41 18 -55 22 -10 28 -7 61 26 29 29 33 39
21 43 -8 3 -18 2 -21 -3 -4 -7 -13 -6 -25 0 -27 15 -37 13 -54 -11z m49 -20
c-4 -5 -13 -9 -22 -9 -13 0 -13 3 -3 15 13 15 35 11 25 -6z"/>
<path d="M2499 500 c-18 -14 -20 -19 -8 -20 8 0 20 5 27 12 9 9 12 9 12 1 0
-7 -9 -15 -20 -18 -24 -8 -26 -30 -4 -39 39 -15 73 41 42 72 -16 16 -22 15
-49 -8z"/>
<path d="M2243 467 c-6 -13 -8 -28 -5 -34 25 -36 91 -6 78 35 -10 31 -59 30
-73 -1z m47 -12 c0 -8 -7 -15 -15 -15 -9 0 -12 6 -9 15 4 8 10 15 15 15 5 0 9
-7 9 -15z"/>
<path d="M2403 482 c-14 -9 -21 -87 -9 -99 12 -12 23 15 24 62 1 25 1 45 0 45
-2 0 -9 -4 -15 -8z"/>
</g>
</svg>
